<svg xmlns="http://www.w3.org/2000/svg" width="266" height="102" viewBox="0 0 266 102"><style type="text/css">.st0{fill:#77DFFF;} .st1{fill:#97272C;} .st2{fill:#B22029;} .st3{fill:#192935;}</style><path class="st0" d="M78.2 7.2l-1.1.7c-.9.6-1.9 1.2-2.9 1.9l-.2.1c-.6.4-1.3.9-1.9 1.4l-.4.3c-10.2 7.3-25 19.8-41 39.4-.8 1-2.3.7-2.7-.5-.3-.7-.5-1.6-.9-2.6-.1-.2-.2-.5-.3-.8-.1-.4-.2-.7-.4-1.1-.8-2.4-1.7-5.2-2.6-8.2l-1-3.2v-.2c-1.5-5-2.9-10.2-3.8-14.4-.3-1.2-1.5-1.5-2.4-1-.1 0-.1.1-.2.2l-.2.2c-.1.1-.2.3-.2.5-.3 1.1-.7 2.4-1.1 3.8l-.1.3-.3 1.1c-3.4 13.5-7.9 36-6 57.9.1 1.6 2.2 2 2.9.6 2.9-5.9 7.6-15.4 10-18.6 0 0 1.3 2.7 3.2 6.5l.1.2c.5 1 1 2.1 1.6 3.2l.2.3.9 1.7c0 .1.1.2.1.2.3.5.5 1 .8 1.6l.2.3c.3.6.6 1.2.9 1.7l.2.4.9 1.7.1.2c.3.6.6 1.2 1 1.8l.2.4c.3.6.6 1.2 1 1.7l.1.2.9 1.5c.1.1.1.2.2.4l.9 1.6.2.3.8 1.4c.1.1.1.2.2.2l.9 1.4.2.3.9 1.3.3.3v.1h.1c.9.6 2.2.1 2.4-1.1.9-5.7 3.2-17.6 8.9-32.6l.4-1.1c.8-2 1.6-4.1 2.6-6.3 6-13.9 14.8-29.8 27.7-45.4.9-1.2-.8-3.2-2.3-2.2z"/><path class="st1" d="M78.2 7.2c-9.8 6.2-27.6 19.5-47.4 43.8-.8 1-2.3.7-2.7-.5-2-6.1-6.9-21-9-30.5-.3-1.6-2.6-1.7-3-.1-3.5 12-9.8 38-7.6 63.1.1 1.6 2.2 2 2.9.6 2.9-5.9 7.6-15.4 10-18.6 0 0 10.1 21.3 16.4 30.5.8 1.2 2.6.7 2.8-.7 1.8-11.6 9.5-49.1 39.6-85.3 1.2-1.3-.5-3.3-2-2.3"/><path class="st2" d="M78.2 7.2c-9.8 6.2-27.6 19.5-47.4 43.8-.8 1-2.3.7-2.7-.5-2-6.1-6.9-21-9-30.5-.3-1.6-2.6-1.7-3-.1-.4 1.5-.9 3.3-1.5 5.3-3.5 13.4 7.5 41.1 8 42.2 2.9 5.9 10.2 20.8 15.2 28.1.8 1.2 2.6.7 2.8-.7 1.8-11.6 9.5-49.1 39.5-85.3 1.3-1.3-.4-3.3-1.9-2.3"/><path class="st3" d="M238.9 83.6h-12.4c-.6 0-1.1-.5-1-1.1.1-1.2 0-2.5 0-3.8 0-.8.3-1 1-1h21.9c.9 0 1.9-.1 2.8-.2.9-.1 1.7-.8 1.8-1.8.1-1 .2-2 .1-3-.2-1.2-1.3-2.2-2.5-2.2h-15.4c-1.5 0-3.1-.2-4.6-.5-2.9-.5-4.7-2.5-4.8-5.6-.1-2.1-.1-4.3.2-6.5.3-2.5 1.5-4.6 4.6-5.3 1.4-.3 2.9-.5 4.4-.5 7.7-.1 15.5 0 23.2 0 .6 0 1.1.5 1.1 1.1v3.7c0 .6-.4 1.1-1 1.1h-22.2c-.7 0-1.3 0-2 .1-1.1.1-1.9 1-2 2.1-.1.7-.1 1.3-.1 2 .1 1.5 1.3 2.7 2.8 2.7h9.6c2.7 0 5.5 0 8.2.1 1.5 0 2.9.5 4.2 1.3 1.8 1.1 2.4 2.9 2.5 4.9.1 1.8.1 3.7 0 5.6-.2 3.2-1.6 5.2-4.7 6-1.5.4-3.2.6-4.8.6-3.5.2-7.2.2-10.9.2zm-53.8-19.3v-10.9c0-1.1 0-1.1 1.2-1.1h4.8c1 0 1.1 0 1.1 1.1v18.3c0 .9.1 1.7.2 2.6.2 1.6 1.4 2.9 3 3.2.8.1 1.7.1 2.5.1h12.1c2.2 0 4-1.8 4-4 .1-4.4.1-8.8.1-13.2v-7c0-.7.2-1 .9-1h5.2c.5 0 .8.4.8.8v20.9c0 1.3-.3 2.6-.6 3.8-.7 3-2.9 4.6-5.8 5.1-1.7.4-3.5.5-5.3.6-4.5.1-9.1.1-13.6 0-1.7 0-3.5-.3-5.1-.8-3.9-1.1-5.2-3.8-5.4-7.5-.2-3.6 0-7.3 0-10.9 0-.1 0-.1-.1-.1m-33.6-6.2c-.6 0-.9.3-.9 1.2v7c-.1 1.1.2 1.3 1 1.3h17.5c.7 0 1.4-.1 2.1-.2 1.4-.2 2.4-1 2.5-2.2.1-1.3.1-2.7.1-4 0-1.9-1-3-3.1-3-3 .1-14.7 0-19.2-.1m27.9 24.5c.5.3.3 1-.3 1.1h-8.3c-1 0-2.5-.5-3.3-1-5.4-3.3-10.8-6.6-16.2-10-.6-.4-.8-.3-.8.6v9.4c0 .8-.3 1-1 1-1.9-.1-3.8 0-5.8 0l-.1-1.1v-30.2h26.3c2.3 0 4.7.3 6.9 1.3 2.1 1 3.4 2.7 3.7 4.9.3 2.5.3 5.1.1 7.6-.3 3.9-3.1 5.5-6.1 6.2-3.4.8-6.9.4-10.3.5-.3 0-1.7-.1-1.7 0-.1.1 11.4 6.6 16.9 9.7M120.5 50l3.9-4.9c.5-.7 1.3-1 2.1-1h4.1l-5 5.1c-.5.5-1.2.8-1.9.8h-3.2zm7.6 20.6h-15.2c-.6 0-1 .5-1 1.1.1 1.2 0 2.3.2 3.5.2 1.3 1.4 2.3 2.7 2.4 1.1.1 2.1.2 3.2.2h19.9c.6 0 1.1.5 1.1 1.1v3.8c0 .6-.2.9-.8.9-7.7 0-15.4.1-23.1-.1-2 0-4-.3-5.9-1.2-2.8-1.3-4-3.8-4.1-6.7-.1-5.1-.1-10.2 0-15.2 0-2.4.9-4.6 3-6 .8-.5 1.7-1 2.5-1.2 2-.4 4.1-.7 6.1-.8 7-.1 13.9 0 20.9 0 1.2 0 1.2 0 1.2 1.2v3.7c0 .7-.2.9-.9.9h-20.3c-.9 0-1.7.1-2.6.2-1.7.2-3.1 1.7-3.1 3.4v2.6c0 .5.4.9.9.9 1.9-.1 16.2 0 16.7 0 1.2 0 1.2 0 1.2 1.1v3.4c0 .7-.2.9-.9.9-4.1-.1 2.5-.1-1.7-.1m-35.1 4.2c0-.5.1-.7.1-1v-20.3c0-1.2 0-1.2 1.2-1.2h4.5c.5 0 1 .4 1 .9v28.3c0 1.4-1 2.4-2.5 2.6-2 .2-3.7-.3-5.2-1.7l-17.8-16.7-4.1-3.8-.6-.5c0 .5-.1.8-.1 1.2v19.8c0 1.1 0 1.1-1.1 1.1h-4.6c-.4 0-.8-.3-.8-.8v-28.1c0-1.9.9-2.6 3-3 2.3-.4 3.8.8 5.3 2.3 7 6.7 14 13.5 21.1 20.2 0 .2.2.4.6.7"/></svg>